<svg width="128" height="35" viewBox="0 0 128 35" fill="none" xmlns="http://www.w3.org/2000/svg">
<path d="M7.992 0.735999V27.76H20.952L20.136 34H0.12V0.735999H7.992ZM45.3863 34H38.8103L38.4743 30.784C36.6183 33.472 34.0423 34.816 30.7463 34.816C28.4103 34.816 26.6343 34.112 25.4183 32.704C24.2343 31.296 23.6423 29.328 23.6423 26.8V8.512H31.2263V25.84C31.2263 27.088 31.4183 27.968 31.8023 28.48C32.2183 28.96 32.8423 29.2 33.6743 29.2C35.2743 29.2 36.6503 28.208 37.8023 26.224V8.512H45.3863V34ZM71.607 26.608C71.607 27.568 71.735 28.272 71.991 28.72C72.279 29.168 72.727 29.504 73.335 29.728L71.751 34.672C70.183 34.544 68.903 34.208 67.911 33.664C66.919 33.088 66.151 32.192 65.607 30.976C63.943 33.536 61.383 34.816 57.927 34.816C55.399 34.816 53.383 34.08 51.879 32.608C50.375 31.136 49.623 29.216 49.623 26.848C49.623 24.064 50.647 21.936 52.695 20.464C54.743 18.992 57.703 18.256 61.575 18.256H64.167V17.152C64.167 15.648 63.847 14.624 63.207 14.08C62.567 13.504 61.447 13.216 59.847 13.216C59.015 13.216 58.007 13.344 56.823 13.6C55.639 13.824 54.423 14.144 53.175 14.56L51.447 9.568C53.047 8.96 54.679 8.496 56.343 8.176C58.039 7.856 59.607 7.696 61.047 7.696C64.695 7.696 67.367 8.448 69.063 9.952C70.759 11.456 71.607 13.712 71.607 16.72V26.608ZM60.135 29.392C61.863 29.392 63.207 28.576 64.167 26.944V22.432H62.295C60.567 22.432 59.271 22.736 58.407 23.344C57.575 23.952 57.159 24.896 57.159 26.176C57.159 27.2 57.415 28 57.927 28.576C58.471 29.12 59.207 29.392 60.135 29.392ZM92.5759 7.696C94.7839 7.696 96.5119 8.368 97.7599 9.712C99.0079 11.056 99.6319 12.944 99.6319 15.376V34H92.0479V16.672C92.0479 15.392 91.8399 14.512 91.4239 14.032C91.0399 13.52 90.4479 13.264 89.6479 13.264C88.1119 13.264 86.6399 14.368 85.2319 16.576V34H77.6479V8.512H84.2719L84.7999 11.536C85.8879 10.256 87.0559 9.296 88.3039 8.656C89.5839 8.016 91.0079 7.696 92.5759 7.696ZM125.607 26.608C125.607 27.568 125.735 28.272 125.991 28.72C126.279 29.168 126.727 29.504 127.335 29.728L125.751 34.672C124.183 34.544 122.903 34.208 121.911 33.664C120.919 33.088 120.151 32.192 119.607 30.976C117.943 33.536 115.383 34.816 111.927 34.816C109.399 34.816 107.383 34.08 105.879 32.608C104.375 31.136 103.623 29.216 103.623 26.848C103.623 24.064 104.647 21.936 106.695 20.464C108.743 18.992 111.703 18.256 115.575 18.256H118.167V17.152C118.167 15.648 117.847 14.624 117.207 14.08C116.567 13.504 115.447 13.216 113.847 13.216C113.015 13.216 112.007 13.344 110.823 13.6C109.639 13.824 108.423 14.144 107.175 14.56L105.447 9.568C107.047 8.96 108.679 8.496 110.343 8.176C112.039 7.856 113.607 7.696 115.047 7.696C118.695 7.696 121.367 8.448 123.063 9.952C124.759 11.456 125.607 13.712 125.607 16.72V26.608ZM114.135 29.392C115.863 29.392 117.207 28.576 118.167 26.944V22.432H116.295C114.567 22.432 113.271 22.736 112.407 23.344C111.575 23.952 111.159 24.896 111.159 26.176C111.159 27.2 111.415 28 111.927 28.576C112.471 29.12 113.207 29.392 114.135 29.392Z" fill="#141414"/>
</svg>
